<svg width="100" height="100" viewBox="0 0 22 22" fill="none" xmlns="http://www.w3.org/2000/svg">
<g clip-path="url(#clip0)">
<path d="M17.8361 10.7496C20.0908 8.72264 20.2755 5.25162 18.2485 2.99688C16.3894 0.928912 13.2776 0.577598 11.0043 2.17907C8.52609 0.430093 5.09932 1.02126 3.35035 3.49943C1.74552 5.77337 2.09541 8.88833 4.16471 10.7496C1.59355 12.1049 -0.0111878 14.777 0.000459707 17.6835V20.0406C0.000459707 20.4746 0.352234 20.8263 0.786186 20.8263H21.2146C21.6486 20.8263 22.0004 20.4746 22.0004 20.0406V17.6835C22.012 14.777 20.4072 12.1049 17.8361 10.7496ZM14.1432 2.755C16.3098 2.7526 18.0682 4.50706 18.0706 6.67368C18.0723 8.21889 17.1669 9.62116 15.7578 10.2554C15.6973 10.2829 15.6368 10.308 15.5756 10.334C15.3817 10.4122 15.1817 10.4744 14.9776 10.5202C14.9384 10.5288 14.899 10.5335 14.859 10.5414C14.631 10.5851 14.3997 10.6085 14.1676 10.6113C14.063 10.6113 13.9578 10.6035 13.8533 10.5941C13.814 10.5941 13.7747 10.5941 13.7354 10.5862C13.2888 10.5336 12.8544 10.4056 12.4508 10.2075C12.4358 10.2004 12.4185 10.2012 12.4036 10.1949C12.325 10.1572 12.2465 10.1242 12.1766 10.0818C12.1829 10.0739 12.1868 10.0653 12.193 10.0574C12.5533 9.59445 12.8374 9.07699 13.0345 8.52449L13.0589 8.45847C13.1485 8.19459 13.2181 7.92434 13.2671 7.64996C13.2742 7.60991 13.2797 7.57137 13.286 7.52819C13.3314 7.24888 13.3553 6.96653 13.3575 6.68354C13.3552 6.40109 13.3313 6.11925 13.286 5.84045C13.2797 5.79961 13.2742 5.76186 13.2671 5.71868C13.2181 5.44434 13.1485 5.17405 13.0589 4.91016L13.0345 4.84414C12.8374 4.29165 12.5533 3.77418 12.193 3.31123C12.1867 3.30335 12.1828 3.29474 12.1766 3.28687C12.7735 2.93864 13.4521 2.75504 14.1432 2.755ZM3.929 6.68358C3.92343 4.51953 5.67318 2.76071 7.83723 2.75514C8.85163 2.75251 9.82753 3.14342 10.5596 3.84559C10.6052 3.8896 10.65 3.93356 10.694 3.97914C10.8289 4.12052 10.9533 4.27153 11.0664 4.43091C11.101 4.47962 11.1324 4.5315 11.1646 4.58178C11.2744 4.75078 11.3708 4.92812 11.4529 5.11213C11.4726 5.15692 11.4875 5.2025 11.5048 5.24725C11.5876 5.45078 11.6528 5.66108 11.6997 5.8758C11.7052 5.89937 11.7067 5.92295 11.7114 5.9473C11.811 6.43516 11.811 6.93812 11.7114 7.42599C11.7067 7.45034 11.7051 7.47391 11.6997 7.49748C11.6528 7.7122 11.5876 7.9225 11.5048 8.12604C11.4875 8.17083 11.4726 8.21641 11.4529 8.26116C11.3707 8.44489 11.2743 8.62195 11.1646 8.79073C11.1324 8.841 11.101 8.89289 11.0664 8.94159C10.9534 9.10102 10.8289 9.25198 10.694 9.39336C10.65 9.43894 10.6052 9.48295 10.5596 9.52692C10.2415 9.83008 9.87472 10.0776 9.47456 10.2592C9.41094 10.2882 9.34649 10.315 9.2813 10.3378C9.0919 10.413 8.89702 10.4734 8.69832 10.5185C8.64883 10.5295 8.59773 10.5357 8.54745 10.5444C8.33412 10.5841 8.11778 10.6059 7.90081 10.6096H7.8144C7.59742 10.6059 7.38109 10.5841 7.16775 10.5444C7.11748 10.5357 7.06638 10.5295 7.01688 10.5185C6.81819 10.4734 6.62326 10.413 6.43391 10.3378C6.36867 10.3119 6.30427 10.2852 6.24064 10.2592C4.83493 9.62452 3.93079 8.22589 3.929 6.68358ZM14.1432 19.2549H1.57187V17.6835C1.56036 15.021 3.23788 12.6439 5.75025 11.7624C7.09897 12.3239 8.61605 12.3239 9.96482 11.7624C10.2271 11.8583 10.4828 11.9714 10.7301 12.1011C10.8935 12.1851 11.0444 12.281 11.2015 12.3776C11.3037 12.4412 11.4074 12.5033 11.5056 12.5733C11.6573 12.6809 11.8002 12.798 11.9409 12.9182C12.0313 12.9968 12.1208 13.0753 12.2057 13.1539C12.3353 13.2765 12.4571 13.4061 12.5741 13.5389C12.6582 13.6348 12.7399 13.7322 12.8177 13.8328C12.9207 13.9648 13.0189 14.0999 13.11 14.239C13.1886 14.3568 13.2585 14.4794 13.3276 14.602C13.4062 14.7371 13.4785 14.8723 13.5445 15.0129C13.6105 15.1536 13.6686 15.3076 13.7252 15.4576C13.7747 15.5881 13.8273 15.7177 13.8682 15.8505C13.9232 16.0327 13.9617 16.2213 14.0002 16.4099C14.0237 16.5214 14.0544 16.6307 14.0717 16.7438C14.1182 17.0549 14.1421 17.3689 14.1432 17.6835V19.2549H14.1432ZM20.4289 19.2549H15.7147V17.6835C15.7147 17.4376 15.7005 17.194 15.6785 16.9528C15.6722 16.8821 15.6612 16.8122 15.6534 16.7414C15.6322 16.5678 15.6078 16.3957 15.5748 16.2252C15.5607 16.1524 15.5457 16.0793 15.53 16.006C15.4923 15.831 15.4486 15.6577 15.3988 15.4859C15.3823 15.4293 15.3673 15.3719 15.3501 15.3162C15.1301 14.6128 14.8113 13.9444 14.4033 13.3307L14.3727 13.2859C14.2375 13.0853 14.0932 12.8912 13.9397 12.7037L13.9342 12.6966C13.7771 12.5018 13.6066 12.3124 13.4275 12.1333C13.4377 12.1333 13.4487 12.1333 13.4597 12.1333C13.6814 12.1624 13.9047 12.1781 14.1283 12.1804H14.1716C14.3785 12.1786 14.5852 12.1652 14.7907 12.1403C14.8551 12.1325 14.9188 12.1207 14.9832 12.1105C15.1503 12.0848 15.3153 12.0515 15.4782 12.0107C15.5246 11.9989 15.5717 11.9879 15.6188 11.9746C15.8326 11.9164 16.0425 11.845 16.2474 11.7609C18.7616 12.6414 20.4407 15.0196 20.429 17.6836V19.2549H20.4289Z" fill="black"/>
</g>
<defs>
<clipPath id="clip0">
<rect width="22" height="22" fill="white" transform="translate(0.000366211)"/>
</clipPath>
</defs>
</svg>
