<svg width="100" height="100" viewBox="0 0 58 57" fill="none" xmlns="http://www.w3.org/2000/svg">
<g clip-path="url(#clip0)">
<path d="M24.7774 1.87836C24.7774 1.87836 13.9074 2.39759 12.6142 15.336C12.6142 15.336 12.4857 18.8279 10.1568 20.2502C10.1568 20.2502 6.53274 22.5789 8.34551 28.7885C8.34551 28.7885 9.12254 32.6712 5.75692 34.8711C5.75692 34.8711 2.91113 37.3298 4.72451 40.8241C4.72451 40.8241 5.88929 41.9898 3.81782 44.0589C3.81782 44.0589 2.00596 47.2936 5.11196 51.6929C5.11196 51.6929 4.72451 48.4615 5.49972 47.6838C5.49972 47.6838 8.21615 50.9153 7.5712 53.1182C7.5712 53.1182 11.971 50.6587 18.3094 50.1428C18.3094 50.1428 25.9437 48.7156 25.1685 39.0153C25.1685 39.0153 18.0519 33.4513 18.3094 28.5328L19.2155 21.2884C19.2155 21.2884 22.1924 17.6689 22.4505 16.2436C22.4505 16.2436 24.5208 19.3478 21.9319 21.6768C21.9319 21.6768 26.4617 20.641 24.9091 14.1709C24.9091 14.1709 25.9425 11.8422 26.591 11.9731C26.591 11.9731 28.7904 17.6647 35.2623 18.0539C35.2623 18.0539 36.2941 24.521 40.3062 25.1702C40.3062 25.1702 40.4355 34.8724 34.7412 38.8856C34.7412 38.8856 33.448 50.2724 44.8345 50.7901C44.8345 50.7901 42.7639 55.9646 47.2925 56.9997C47.2925 56.9997 46.5167 51.9543 50.2688 51.9543L51.9507 54.0219C51.9507 54.0219 55.9628 48.9777 54.1504 45.4863C54.1504 45.4863 50.3985 43.6739 51.8223 38.8878C51.8223 38.8878 54.1504 37.0786 50.9153 34.7469C50.9153 34.7469 50.2685 33.8402 51.4382 32.8069C51.4382 32.8069 55.4475 29.4413 48.719 22.066L48.4633 15.3375C48.4633 15.3375 46.6518 5.2461 34.3607 0.456682C34.3562 0.455171 25.5544 -1.22824 24.7774 1.87836Z" fill="black"/>
</g>
<defs>
<clipPath id="clip0">
<rect width="57" height="57" fill="white" transform="translate(0.456543)"/>
</clipPath>
</defs>
</svg>
