<svg width="100" height="100" viewBox="0 0 51 50" fill="none" xmlns="http://www.w3.org/2000/svg">
<path d="M42.1862 9.73101L35.7711 8.50878H35.7713C34.1503 8.19983 32.9736 6.77796 32.9736 5.12756V2.47635C32.9736 1.11078 31.8627 0 30.4974 0H20.4155C19.0501 0 17.9394 1.11095 17.9394 2.47635V5.12756C17.9394 6.77779 16.7629 8.19967 15.142 8.50878L8.72667 9.73101C4.72145 10.4944 1.93435 14.1357 2.24362 18.2013L4.48863 47.7117C4.58655 48.9949 5.67108 49.9998 6.95788 49.9998H43.9551C45.2423 49.9998 46.3266 48.9946 46.4242 47.7116L48.6694 18.2013C48.9785 14.1357 46.1915 10.4944 42.1862 9.73101ZM46.1995 18.0134L43.955 47.5232H38.5435L37.3476 41.801L41.5209 23.544C41.6733 22.8774 41.2562 22.2131 40.5894 22.0609C39.9227 21.908 39.2585 22.3256 39.1063 22.9924L34.8725 41.5133C34.8327 41.6874 34.8311 41.8679 34.8676 42.0426L36.013 47.5233L14.8995 47.5237L16.0449 42.0426C16.0814 41.8679 16.0798 41.6874 16.04 41.5133L11.8062 22.9924C11.6538 22.3256 10.9903 21.9083 10.3231 22.0609C9.65631 22.2133 9.23938 22.8774 9.39162 23.544L13.5649 41.801L12.3689 47.5235H6.95821L4.71336 18.0134C4.4997 15.2058 6.42437 12.6913 9.19017 12.1639L15.6055 10.9417C18.393 10.4103 20.4162 7.96519 20.4162 5.12756L20.4155 2.47684L30.4968 2.47635V5.12756C30.4968 7.96536 32.52 10.4103 35.3076 10.9417L41.7227 12.1639C44.4885 12.6912 46.4131 15.2058 46.1995 18.0134Z" fill="black"/>
<path d="M25.4563 14.7723C24.9093 14.7723 24.4656 15.216 24.4656 15.763V37.2199C24.4656 37.7669 24.9093 38.2106 25.4563 38.2106C26.0034 38.2106 26.4471 37.7669 26.4471 37.2199V15.763C26.4471 15.2158 26.0035 14.7723 25.4563 14.7723Z" fill="black"/>
</svg>
