<svg width="100" height="100" viewBox="0 0 22 22" fill="none" xmlns="http://www.w3.org/2000/svg">
<g clip-path="url(#clip0)">
<path d="M14.3937 0C10.2937 0 6.95805 3.33566 6.95805 7.4357C6.95805 8.34719 7.12 9.23295 7.43977 10.0741L0.329991 17.1844C0.22837 17.2861 0.171265 17.4239 0.171265 17.5676V21.4581C0.171265 21.7574 0.413866 22 0.713144 22H3.9193C4.06286 22 4.20053 21.9431 4.30215 21.8416L5.3826 20.7628C5.48444 20.6611 5.54163 20.5232 5.54163 20.3793V19.0526H6.86666C7.16593 19.0526 7.40853 18.81 7.40853 18.5107V17.9796H7.93967C8.23891 17.9796 8.48155 17.737 8.48155 17.4377V16.2717H9.64755C9.79124 16.2717 9.92904 16.2146 10.0307 16.113L11.7547 14.3891C12.5959 14.7091 13.4818 14.8713 14.3937 14.8713C18.4937 14.8713 21.8294 11.5356 21.8294 7.43561C21.8294 3.33566 18.4938 0 14.3937 0ZM14.3937 13.7876C13.5068 13.7876 12.649 13.6084 11.844 13.255C11.6359 13.1637 11.4015 13.214 11.248 13.3635C11.2463 13.3651 11.2447 13.3664 11.2431 13.3681L9.42317 15.188H7.93976C7.64048 15.188 7.39788 15.4306 7.39788 15.7299V16.8959H6.86674C6.56751 16.8959 6.32486 17.1385 6.32486 17.4377V17.9688H4.99979C4.70056 17.9688 4.45791 18.2114 4.45791 18.5107V20.1546L3.69509 20.9162H1.25511V20.1505L7.87835 13.5273C8.06884 13.3368 8.06884 13.028 7.87835 12.8376C7.68787 12.6471 7.37919 12.647 7.18858 12.8376L1.25511 18.7711V17.7921L8.4608 10.5859C8.46243 10.5842 8.46367 10.5827 8.46518 10.5811C8.6148 10.4278 8.66524 10.1934 8.57389 9.98508C8.22086 9.18019 8.04194 8.3224 8.04194 7.43574C8.04194 3.93327 10.8914 1.0838 14.3939 1.0838C17.8963 1.0838 20.7457 3.93323 20.7457 7.43574C20.7456 10.9381 17.8961 13.7876 14.3937 13.7876Z" fill="black"/>
<path d="M16.6567 3.14291C15.5375 3.14291 14.627 4.05342 14.627 5.17263C14.627 6.29184 15.5375 7.20234 16.6567 7.20234C17.7759 7.20234 18.6864 6.29184 18.6864 5.17263C18.6864 4.05342 17.7759 3.14291 16.6567 3.14291ZM16.6567 6.11859C16.1351 6.11859 15.7107 5.69423 15.7107 5.17263C15.7107 4.65103 16.1351 4.22667 16.6567 4.22667C17.1783 4.22667 17.6027 4.65103 17.6027 5.17263C17.6027 5.69423 17.1783 6.11859 16.6567 6.11859Z" fill="black"/>
</g>
<defs>
<clipPath id="clip0">
<rect width="22" height="22" fill="white" transform="translate(0.000366211)"/>
</clipPath>
</defs>
</svg>
