<svg width="100" height="100" viewBox="0 0 15 12" fill="none" xmlns="http://www.w3.org/2000/svg">
<path d="M13.6816 0.287109H1.31836C0.592324 0.287109 0 0.878789 0 1.60547V10.3945C0 11.1187 0.589688 11.7129 1.31836 11.7129H13.6816C14.4059 11.7129 15 11.1232 15 10.3945V1.60547C15 0.88125 14.4103 0.287109 13.6816 0.287109ZM13.4996 1.16602L7.52795 7.13769L1.50466 1.16602H13.4996ZM0.878906 10.2125V1.78327L5.11169 5.97976L0.878906 10.2125ZM1.50038 10.834L5.73583 6.59854L7.21992 8.06988C7.39172 8.24022 7.66895 8.23966 7.84005 8.06853L9.28711 6.62148L13.4996 10.834H1.50038ZM14.1211 10.2125L9.90858 6L14.1211 1.78746V10.2125Z" fill="black"/>
</svg>
