<svg width="100" height="100" viewBox="0 0 22 22" fill="none" xmlns="http://www.w3.org/2000/svg">
<g clip-path="url(#clip0)">
<path d="M21.9208 17.2668L20.6431 13.5481C21.259 12.289 21.5845 10.8888 21.5867 9.47986C21.5904 7.03007 20.6426 4.71375 18.9178 2.95762C17.1926 1.20114 14.8937 0.212381 12.4444 0.173581C9.90475 0.133448 7.51758 1.09947 5.7229 2.89411C3.99237 4.62459 3.03253 6.90594 3.00215 9.34382C1.29655 10.628 0.28983 12.6301 0.293139 14.7686C0.294729 15.7694 0.519972 16.7641 0.946781 17.6637L0.0666502 20.225C-0.0846431 20.6653 0.0258727 21.1434 0.3551 21.4726C0.586788 21.7043 0.892254 21.8277 1.2064 21.8277C1.33857 21.8277 1.47229 21.8059 1.6027 21.761L4.16403 20.8809C5.06358 21.3077 6.05835 21.533 7.0591 21.5345C7.06271 21.5345 7.06615 21.5345 7.06976 21.5345C9.24011 21.5345 11.2575 20.5018 12.537 18.7544C13.8685 18.7193 15.1858 18.397 16.3768 17.8144L20.0955 19.0922C20.2504 19.1454 20.4093 19.1714 20.5664 19.1714C20.9397 19.1714 21.3027 19.0248 21.5781 18.7494C21.9693 18.3581 22.1006 17.79 21.9208 17.2668ZM7.06967 20.225C7.06688 20.225 7.06391 20.225 7.06112 20.225C6.17536 20.2237 5.29574 20.0053 4.51754 19.5936C4.35752 19.509 4.16966 19.4943 3.99856 19.5531L1.37217 20.4556L2.27465 17.8293C2.33343 17.6581 2.31882 17.4703 2.23417 17.3103C1.82244 16.532 1.60408 15.6525 1.6027 14.7667C1.60051 13.3419 2.15476 11.9914 3.12401 10.9802C3.44061 12.9101 4.36044 14.6886 5.78623 16.0891C7.2015 17.4792 8.98049 18.3642 10.9 18.6536C9.88645 19.6526 8.52021 20.225 7.06967 20.225ZM20.652 17.8234C20.6148 17.8606 20.5706 17.8708 20.5209 17.8537L16.54 16.4857C16.4708 16.4619 16.3989 16.4502 16.3272 16.4502C16.2216 16.4502 16.1163 16.4757 16.021 16.5262C14.8844 17.1275 13.5999 17.4464 12.3065 17.4484C12.3022 17.4484 12.2984 17.4484 12.2941 17.4484C7.96016 17.4484 4.38029 13.9278 4.31163 9.59484C4.27704 7.41267 5.10711 5.36181 6.64888 3.82004C8.19064 2.27828 10.2418 1.44851 12.4237 1.48288C16.7608 1.55168 20.2838 5.13816 20.2771 9.47779C20.2751 10.7712 19.9562 12.0557 19.355 13.1923C19.2703 13.3523 19.2557 13.5401 19.3145 13.7113L20.6824 17.6922C20.6995 17.7421 20.6892 17.7862 20.652 17.8234Z" fill="#0D97AA"/>
<path d="M16.1946 5.99469H8.39316C8.03154 5.99469 7.7384 6.28787 7.7384 6.64945C7.7384 7.01108 8.03158 7.30421 8.39316 7.30421H16.1946C16.5562 7.30421 16.8493 7.01103 16.8493 6.64945C16.8493 6.28787 16.5562 5.99469 16.1946 5.99469Z" fill="#0D97AA"/>
<path d="M16.1946 8.68758H8.39316C8.03154 8.68758 7.7384 8.98075 7.7384 9.34234C7.7384 9.70392 8.03158 9.99709 8.39316 9.99709H16.1946C16.5562 9.99709 16.8493 9.70392 16.8493 9.34234C16.8493 8.98075 16.5562 8.68758 16.1946 8.68758Z" fill="#0D97AA"/>
<path d="M13.1916 11.3804H8.39316C8.03154 11.3804 7.7384 11.6735 7.7384 12.0351C7.7384 12.3967 8.03158 12.6899 8.39316 12.6899H13.1916C13.5532 12.6899 13.8463 12.3967 13.8463 12.0351C13.8463 11.6735 13.5533 11.3804 13.1916 11.3804Z" fill="#0D97AA"/>
</g>
<defs>
<clipPath id="clip0">
<rect width="22" height="22" fill="white"/>
</clipPath>
</defs>
</svg>
