<svg width="100" height="100" viewBox="0 0 32 32" fill="none" xmlns="http://www.w3.org/2000/svg">
<g clip-path="url(#clip0)">
<path d="M2.74736 28.548C1.54736 27.715 0.959356 21.737 0.959356 21.737C0.959356 21.737 -0.0456443 15.294 0.101356 13.971C0.248356 12.648 2.40336 10.785 3.11436 10.909C1.66936 8.828 4.60836 8.044 4.60836 8.044C4.60836 8.044 7.40036 5.521 13.8674 4.149C14.4794 4.1 12.9844 3.512 11.7034 3.343C12.1524 2.458 14.9704 3.952 14.9704 3.952C14.9704 3.952 13.8434 2.752 12.5444 2.385C12.9194 2.003 14.6304 3.099 16.5624 3.829C20.0814 5.161 23.2404 5.034 24.2934 6.504C24.8084 7.092 24.3524 8.165 25.0864 8.264C25.8204 8.362 30.0834 9.537 31.4554 13.726C29.8624 11.914 28.7354 11.988 28.7354 11.988C28.7354 11.988 31.2104 14.805 31.1614 16.863C31.1424 17.653 30.3604 18.269 29.7394 19.386C28.7464 21.173 27.7184 23.53 27.5364 24.554C27.2404 26.22 26.8984 28.964 26.1874 29.062C25.4764 29.16 25.6004 18.333 25.6984 17.646C25.9434 16.643 21.3864 15.467 21.3864 15.467C21.3864 15.467 24.7174 17.598 23.9084 19.631C23.0254 17.278 21.8024 17.254 21.8024 17.254C21.8024 17.254 24.3744 22.202 22.8554 23.157C21.9724 17.597 19.7204 16.444 17.9074 15.613C16.0944 14.779 12.1504 15.122 9.84735 15.98C7.54535 16.837 5.16836 16.152 5.16836 16.152L5.56136 18.259L4.45836 17.376L4.23836 18.724C4.23836 18.724 4.94736 19.996 4.85036 20.733C4.14036 19.851 3.82136 19.851 3.82136 19.851C3.82136 19.851 4.43436 20.856 4.16436 21.394C3.82136 20.684 3.23336 20.929 3.23336 20.929C3.23336 20.929 3.48236 28.475 2.74736 28.548Z" fill="black"/>
</g>
<defs>
<clipPath id="clip0">
<rect width="31.37" height="31.37" fill="white" transform="translate(0.0864258)"/>
</clipPath>
</defs>
</svg>
