<svg width="100" height="100" viewBox="0 0 15 16" fill="none" xmlns="http://www.w3.org/2000/svg">
<g clip-path="url(#clip0)">
<path d="M7.5 15.5C11.6421 15.5 15 12.1421 15 8C15 3.85786 11.6421 0.5 7.5 0.5C3.35786 0.5 0 3.85786 0 8C0 12.1421 3.35786 15.5 7.5 15.5Z" fill="#FFD93B"/>
<path d="M7.50008 12.8207C5.3068 12.8207 3.3957 11.3352 2.85289 9.20898C2.81024 9.04163 2.91102 8.87148 3.07836 8.82882C3.24477 8.78523 3.41539 8.88695 3.45805 9.05429C3.93055 10.904 5.59227 12.1959 7.49961 12.1959C9.40695 12.1959 11.0691 10.904 11.5412 9.05429C11.5834 8.88695 11.7535 8.78523 11.9213 8.82882C12.0887 8.87148 12.1895 9.04163 12.1468 9.20898C11.6045 11.3352 9.69336 12.8207 7.50008 12.8207Z" fill="#3E4347"/>
<path d="M15 8.00002C15 12.1438 11.6414 15.5 7.50002 15.5C5.14221 15.5 3.03752 14.4125 1.66174 12.7086C2.94846 13.7492 4.58674 14.3703 6.37034 14.3703C10.5117 14.3703 13.8703 11.0141 13.8703 6.87034C13.8703 5.08674 13.2492 3.44846 12.2086 2.16174C13.9102 3.53752 15 5.64221 15 8.00002Z" fill="#F4C534"/>
<path d="M5.07801 8.32025C5.71279 8.32025 6.22738 7.7087 6.22738 6.95432C6.22738 6.19993 5.71279 5.58838 5.07801 5.58838C4.44323 5.58838 3.92863 6.19993 3.92863 6.95432C3.92863 7.7087 4.44323 8.32025 5.07801 8.32025Z" fill="#3E4347"/>
<path d="M5.59631 6.66039C5.50678 6.7307 5.35959 6.69601 5.26538 6.58164C5.17116 6.46727 5.16647 6.31399 5.256 6.24367C5.34506 6.17008 5.49272 6.20477 5.58647 6.31914C5.68116 6.4368 5.6821 6.58727 5.59631 6.66039Z" fill="#5A5F63"/>
<path d="M9.92341 8.32025C10.5582 8.32025 11.0728 7.7087 11.0728 6.95432C11.0728 6.19993 10.5582 5.58838 9.92341 5.58838C9.28863 5.58838 8.77403 6.19993 8.77403 6.95432C8.77403 7.7087 9.28863 8.32025 9.92341 8.32025Z" fill="#3E4347"/>
<path d="M10.441 6.66039C10.3515 6.7307 10.2043 6.69601 10.1101 6.58164C10.0158 6.46727 10.0112 6.31399 10.1007 6.24367C10.1897 6.17008 10.3369 6.20477 10.4311 6.31914C10.5258 6.4368 10.5268 6.58727 10.441 6.66039Z" fill="#5A5F63"/>
</g>
<defs>
<clipPath id="clip0">
<rect width="15" height="15" fill="white" transform="translate(0 0.5)"/>
</clipPath>
</defs>
</svg>
