<svg width="100" height="100" viewBox="0 0 15 16" fill="none" xmlns="http://www.w3.org/2000/svg">
<path d="M12.3633 9.15385C12.3633 9.47246 12.5601 9.73077 12.8028 9.73077C13.0455 9.73077 13.2422 9.47246 13.2422 9.15385C13.2422 6.55769 12.215 5.54623 11.3086 4.65385C10.4597 3.818 9.72659 3.09615 9.72659 1.07692C9.72659 0.758308 9.52984 0.5 9.28714 0.5C9.04444 0.5 8.84769 0.758308 8.84769 1.07692C8.84769 3.67308 9.87495 4.68454 10.7813 5.57692C11.6302 6.41277 12.3633 7.13462 12.3633 9.15385Z" fill="black"/>
<path d="M13.2422 1.07692C13.2422 0.758308 13.0454 0.5 12.8027 0.5C12.56 0.5 12.3633 0.758308 12.3633 1.07692C12.3633 3.55931 12.8694 4.55604 13.316 5.43539C13.73 6.25073 14.1211 7.02085 14.1211 9.15385C14.1211 9.47246 14.3179 9.73077 14.5605 9.73077C14.8032 9.73077 15 9.47246 15 9.15385C15 6.67146 14.4939 5.67473 14.0473 4.79538C13.6333 3.98004 13.2422 3.20992 13.2422 1.07692Z" fill="black"/>
<path d="M14.5605 10.8845H0.439438C0.196743 10.8845 -1.52588e-05 11.1428 -1.52588e-05 11.4614V14.923C-1.52588e-05 15.2416 0.196743 15.4999 0.439438 15.4999H14.5605C14.8032 15.4999 15 15.2416 15 14.923V11.4614C15 11.1428 14.8032 10.8845 14.5605 10.8845ZM12.3633 12.0384V14.3461H6.18163V12.0384H12.3633ZM0.878891 12.0384H5.30272V14.3461H0.878891V12.0384ZM14.1211 14.3461H13.2422V12.0384H14.1211V14.3461Z" fill="black"/>
</svg>
