<svg width="100" height="100" viewBox="0 0 25 25" fill="none" xmlns="http://www.w3.org/2000/svg">
<path d="M20.4621 20.2117C19.4076 21.3541 18.1565 22.2538 16.7437 22.8859C15.2814 23.54 13.7209 23.8717 12.1055 23.8717C9.06802 23.8717 6.2123 22.6888 4.0645 20.541C1.9167 18.3932 0.733838 15.5375 0.733838 12.5C0.733838 9.46257 1.9167 6.60685 4.06455 4.459C6.21235 2.3112 9.06807 1.12834 12.1055 1.12834C14.2406 1.12834 16.3213 1.72336 18.1227 2.84899C18.2946 2.95637 18.5209 2.90412 18.6283 2.73229C18.7357 2.56042 18.6834 2.33405 18.5116 2.22668C16.5935 1.02805 14.3783 0.394501 12.1055 0.394501C8.87202 0.394501 5.83208 1.65368 3.54565 3.94011C1.25923 6.22658 0 9.26652 0 12.5C0 15.7335 1.25923 18.7735 3.54561 21.0599C5.83203 23.3464 8.87197 24.6055 12.1055 24.6055C13.8249 24.6055 15.4862 24.2523 17.0434 23.5557C18.5474 22.8829 19.879 21.9253 21.0013 20.7095C21.1388 20.5606 21.1295 20.3285 20.9806 20.191C20.8316 20.0535 20.5995 20.0628 20.4621 20.2117Z" fill="black"/>
<path d="M24.9698 11.2022C24.9117 11.068 24.7794 10.981 24.6331 10.981H24.1162C23.9287 9.47957 23.4667 8.04588 22.7411 6.71454C21.983 5.32367 20.9742 4.11004 19.7428 3.10746C19.5856 2.97943 19.3544 3.00326 19.2266 3.16034C19.0986 3.31751 19.1223 3.54862 19.2794 3.67655C20.4367 4.61869 21.3845 5.75897 22.0968 7.06571C22.8281 8.4076 23.2742 9.86029 23.4227 11.3835C23.4409 11.5705 23.5973 11.7133 23.7849 11.7148L22.6152 12.9596L21.4456 11.7148H21.6952C21.9087 11.7197 22.0896 11.516 22.0595 11.3046C21.461 6.27079 17.1817 2.47484 12.1055 2.47484C6.57759 2.47484 2.08032 6.9721 2.08032 12.5C2.08032 14.366 2.59658 16.1871 3.57329 17.7663C3.64272 17.8785 3.76279 17.9403 3.88569 17.9403C3.95156 17.9403 4.01821 17.9225 4.07837 17.8853C4.25068 17.7787 4.304 17.5526 4.19741 17.3803C3.29248 15.9171 2.81416 14.2296 2.81416 12.5C2.81416 7.37674 6.98223 3.20868 12.1055 3.20868C16.6712 3.20868 20.5413 6.52176 21.2728 10.981H20.5972C20.2854 10.9706 20.1088 11.3791 20.3298 11.5992L22.3478 13.7467C22.4854 13.8995 22.7449 13.8995 22.8826 13.7467L24.9005 11.5992C25.0006 11.4925 25.0279 11.3366 24.9698 11.2022Z" fill="black"/>
<path d="M23.4279 15.2389H21.2535C21.0963 15.2389 20.9565 15.339 20.906 15.4879C19.6264 19.2581 16.0897 21.7913 12.1055 21.7913C9.3773 21.7913 6.79741 20.5986 5.0273 18.5192C4.89595 18.3649 4.66431 18.3463 4.51006 18.4776C4.35576 18.609 4.33716 18.8406 4.46851 18.9949C6.37832 21.2384 9.16187 22.5252 12.1055 22.5252C16.3159 22.5252 20.0631 19.9028 21.5127 15.9727H22.9365C22.5785 17.0914 22.0501 18.1434 21.3619 19.106C21.2441 19.2708 21.2822 19.5 21.4471 19.6178C21.612 19.7358 21.8412 19.6975 21.9589 19.5327C22.7919 18.3674 23.4052 17.0788 23.7819 15.7026C23.8121 15.5922 23.7891 15.4741 23.7196 15.3832C23.6502 15.2922 23.5423 15.2389 23.4279 15.2389Z" fill="black"/>
<path d="M5.15658 15.2853C5.19955 15.3017 5.24369 15.3094 5.2871 15.3094C5.4349 15.3094 5.5743 15.2194 5.63002 15.073L5.98065 14.1523H8.31697L8.66404 15.072C8.73558 15.2616 8.94734 15.3574 9.13689 15.2857C9.32649 15.2142 9.42215 15.0025 9.35061 14.8129L7.59735 10.1671C7.59613 10.1637 7.59481 10.1604 7.59344 10.1571C7.5201 9.97871 7.34818 9.86353 7.15531 9.86353C7.15516 9.86353 7.15501 9.86353 7.15491 9.86353C6.9619 9.86367 6.78993 9.9792 6.71683 10.1579C6.71571 10.1606 6.71458 10.1634 6.71356 10.1662L4.94423 14.8118C4.87211 15.0012 4.96717 15.2132 5.15658 15.2853ZM7.15418 11.0712L8.04007 13.4185H6.26019L7.15418 11.0712Z" fill="black"/>
<path d="M17.7876 10.6189C17.9903 10.6189 18.1546 10.4546 18.1546 10.252C18.1546 10.0493 17.9903 9.88503 17.7876 9.88503H15.8203C15.6176 9.88503 15.4534 10.0493 15.4534 10.252V14.9209C15.4534 15.1235 15.6176 15.2878 15.8203 15.2878H17.7876C17.9903 15.2878 18.1546 15.1235 18.1546 14.9209C18.1546 14.7182 17.9903 14.5539 17.7876 14.5539H16.1873V12.9533H17.6426C17.8453 12.9533 18.0095 12.789 18.0095 12.5864C18.0095 12.3838 17.8453 12.2195 17.6426 12.2195H16.1873V10.6189H17.7876V10.6189Z" fill="black"/>
<path d="M12.3095 10.5974C12.7081 10.5974 13.0926 10.7148 13.4214 10.9369C13.5893 11.0504 13.8174 11.0062 13.9308 10.8382C14.0443 10.6703 14.0001 10.4422 13.8322 10.3288C13.3816 10.0245 12.8551 9.86359 12.3095 9.86359C10.8081 9.86359 9.58661 11.0851 9.58661 12.5865C9.58661 14.0879 10.8081 15.3094 12.3095 15.3094C13.723 15.3094 14.7102 14.1897 14.7102 12.5865C14.7102 12.3838 14.5459 12.2195 14.3432 12.2195H12.9337C12.731 12.2195 12.5667 12.3838 12.5667 12.5865C12.5667 12.7891 12.731 12.9534 12.9337 12.9534H13.956C13.8188 14.1426 13.0105 14.5755 12.3095 14.5755C11.2127 14.5755 10.3204 13.6833 10.3204 12.5865C10.3204 11.4897 11.2127 10.5974 12.3095 10.5974Z" fill="black"/>
</svg>
