<svg width="100" height="100" viewBox="0 0 15 16" fill="none" xmlns="http://www.w3.org/2000/svg">
<g clip-path="url(#clip0)">
<path d="M10.2273 3.9091V11.75C10.2273 13.2568 9.00684 14.4773 7.50004 14.4773C5.99324 14.4773 4.77274 13.2568 4.77274 11.75V3.22726C4.77274 2.28635 5.53637 1.52273 6.47728 1.52273C7.41819 1.52273 8.18185 2.28635 8.18185 3.22726V10.3864C8.18185 10.7613 7.87845 11.0682 7.50004 11.0682C7.12163 11.0682 6.81823 10.7613 6.81823 10.3864V3.9091H5.7955V10.3864C5.7955 11.3273 6.55913 12.0909 7.50004 12.0909C8.44095 12.0909 9.20458 11.3273 9.20458 10.3864V3.22726C9.20458 1.72047 7.98411 0.5 6.47731 0.5C4.97051 0.5 3.75005 1.72047 3.75005 3.22726V11.75C3.75005 13.8227 5.43074 15.5 7.50004 15.5C9.56934 15.5 11.25 13.8227 11.25 11.75V3.9091H10.2273Z" fill="black"/>
</g>
<defs>
<clipPath id="clip0">
<rect width="15" height="15" fill="white" transform="translate(0 0.5)"/>
</clipPath>
</defs>
</svg>
