<svg width="100" height="100" viewBox="0 0 59 50" fill="none" xmlns="http://www.w3.org/2000/svg">
<path d="M47.2885 22.085C47.5375 22.5305 48.1004 22.6899 48.5459 22.441C48.9914 22.1921 49.1508 21.6291 48.9019 21.1836C46.8736 17.5535 44.1977 17.1929 41.8368 16.8747C39.6255 16.5767 37.7158 16.3193 36.1383 13.4959C35.8894 13.0504 35.3264 12.891 34.8809 13.1399C34.4354 13.3889 34.276 13.9518 34.5249 14.3973C36.5532 18.0274 39.2291 18.3881 41.59 18.7062C43.8013 19.0043 45.711 19.2617 47.2885 22.085Z" fill="black"/>
<path d="M42.5917 9.89009C42.3427 9.44459 41.7798 9.28522 41.3343 9.53414C40.8888 9.78306 40.7294 10.346 40.9783 10.7915C42.9177 14.2625 44.6255 15.1371 46.1322 15.9086C47.5292 16.624 48.8488 17.2997 50.5152 20.2821C50.7641 20.7276 51.3271 20.887 51.7726 20.6381C52.2181 20.3892 52.3775 19.8262 52.1285 19.3807C50.1892 15.9097 48.4814 15.0352 46.9746 14.2636C45.5776 13.5482 44.2581 12.8725 42.5917 9.89009Z" fill="black"/>
<path d="M52.674 22.2515L26.7527 36.7348C26.3072 36.9837 26.1478 37.5467 26.3968 37.9922L29.1011 42.8323C29.35 43.2778 29.913 43.4371 30.3585 43.1882L56.2798 28.7049C56.7253 28.456 56.8847 27.893 56.6357 27.4475L53.9314 22.6074C53.6825 22.1619 53.1195 22.0025 52.674 22.2515ZM49.542 26.1184L51.3449 29.3452L39.9977 35.6854L38.1948 32.4587L49.542 26.1184ZM28.4609 37.8974L36.5814 33.3601L38.3843 36.5868L30.2638 41.1241L28.4609 37.8974ZM54.5717 27.5423L52.9583 28.4437L51.1554 25.217L52.7688 24.3155L54.5717 27.5423Z" fill="black"/>
<path d="M38.6854 6.78359C39.061 6.28467 39.1212 5.62754 38.8424 5.06875C38.5637 4.50986 38.0025 4.16279 37.378 4.16279H10.7181C10.3632 1.80996 8.32964 0 5.87944 0C3.17993 0 0.983643 2.19619 0.983643 4.8958C0.983643 7.59531 3.17983 9.7916 5.87944 9.7916C6.5104 9.7916 7.11372 9.67139 7.66812 9.45293C7.66812 9.45293 18.8008 24.2386 18.8009 24.2387C19.3935 25.0256 19.7221 26.0068 19.7221 26.9938V40.9465C19.7221 41.3282 19.6825 41.71 19.604 42.0835C19.1435 44.2724 17.3924 45.9516 15.2081 46.3686C14.9369 46.4119 12.5267 46.8589 12.0269 49.108C11.9787 49.325 12.0315 49.5522 12.1707 49.7257C12.3097 49.8991 12.5201 50 12.7424 50H24.1343C24.5392 50 24.8673 49.6719 24.8673 49.267C24.8673 48.8621 24.5391 48.534 24.1343 48.534C24.1343 48.534 13.9586 48.534 13.9587 48.5339C14.4801 48.0223 15.0536 47.9029 15.732 47.7583C18.8935 47.0841 21.1882 44.2193 21.1882 40.9465V26.9937C21.1882 26.7792 21.1754 26.5652 21.1524 26.3524H23.1915C23.1684 26.5652 23.1556 26.7793 23.1556 26.9937V40.9464C23.1556 44.2271 25.4625 47.0945 28.6406 47.7644C29.2796 47.899 29.9005 48.0586 30.3851 48.534H27.5841C27.1792 48.534 26.8511 48.8621 26.8511 49.267C26.8511 49.6719 27.1793 50 27.5841 50H31.6013C31.8237 50 32.0339 49.8991 32.1731 49.7257C32.3123 49.5522 32.3651 49.325 32.3168 49.108C31.9463 47.4413 30.4793 46.6536 28.9427 46.3298C26.4389 45.8021 24.6217 43.538 24.6217 40.9465V26.9937C24.6217 26.0092 24.9506 25.0253 25.5429 24.2387L38.6854 6.78359ZM5.87944 8.32539C3.98833 8.32539 2.44976 6.78691 2.44976 4.8957C2.44976 3.00449 3.98833 1.46602 5.87944 1.46602C7.5189 1.46602 8.89185 2.62266 9.22847 4.1627H6.96577C6.34126 4.1627 5.78013 4.50986 5.50132 5.06875C5.22261 5.62754 5.28276 6.28477 5.65835 6.78359L6.73687 8.21602C6.46265 8.28711 6.17554 8.32539 5.87944 8.32539ZM23.534 24.8863H20.8091C20.6632 24.4927 20.4761 24.1166 20.251 23.7611C20.2502 23.76 20.2496 23.7587 20.2488 23.7575C19.9305 23.2463 19.5493 22.7951 19.1892 22.3169C18.6058 21.542 9.52554 9.48281 9.24048 9.10303C10.3157 9.1167 11.3888 9.21123 12.4539 9.35635C12.9553 9.42471 13.4552 9.50449 13.9537 9.59277C14.4446 9.67969 14.9259 9.77305 15.41 9.87256C15.8066 9.9541 16.1938 9.69736 16.2747 9.30078C16.3555 8.9041 16.0995 8.51699 15.7028 8.43613C13.2238 7.93281 10.6841 7.55283 8.1481 7.65303L6.82954 5.90186C6.7771 5.83223 6.79175 5.76631 6.81323 5.72324C6.83472 5.68018 6.87866 5.62881 6.96577 5.62881H37.378C37.4652 5.62881 37.509 5.68018 37.5305 5.72324C37.552 5.76631 37.5666 5.83223 37.5141 5.90186L35.5535 8.50586C34.7874 9.00469 33.9636 9.40869 33.1021 9.70547C31.1176 10.3893 28.9998 10.5694 26.913 10.4682C24.2546 10.3392 21.625 9.77539 19.0488 9.18027C18.6538 9.08906 18.2606 9.33486 18.1694 9.7292C18.0782 10.1236 18.3239 10.5173 18.7184 10.6086C21.3269 11.2114 23.9619 11.772 26.6415 11.9238C28.9865 12.0567 31.3471 11.85 33.5796 11.0915C33.5918 11.0874 33.6038 11.0832 33.6158 11.079L24.3716 23.3567C24.026 23.8154 23.7334 24.3483 23.534 24.8863Z" fill="black"/>
</svg>
