<svg width="100" height="100" viewBox="0 0 15 16" fill="none" xmlns="http://www.w3.org/2000/svg">
<path d="M14.8696 2.53508C15.0177 2.3854 15.0415 2.18826 14.9315 2.02062C14.8216 1.85296 14.6002 1.74884 14.3539 1.74884H3.83928C3.69931 1.04299 2.89726 0.5 1.93091 0.5C0.866217 0.5 0 1.15886 0 1.96874C0 2.77859 0.866179 3.43748 1.93091 3.43748C2.17976 3.43748 2.41771 3.40142 2.63636 3.33588C2.63636 3.33588 7.0271 7.77157 7.02714 7.7716C7.26086 8.00768 7.39046 8.30205 7.39046 8.59815V12.7839C7.39046 12.8985 7.37482 13.013 7.34386 13.125C7.16226 13.7817 6.47163 14.2855 5.61011 14.4106C5.50316 14.4236 4.55259 14.5577 4.35547 15.2324C4.33644 15.2975 4.35728 15.3657 4.41216 15.4177C4.46701 15.4697 4.54997 15.5 4.63767 15.5H9.13064C9.29032 15.5 9.41974 15.4016 9.41974 15.2801C9.41974 15.1586 9.29028 15.0602 9.13064 15.0602C9.13064 15.0602 5.11734 15.0602 5.11738 15.0602C5.32302 14.9067 5.54918 14.8709 5.81675 14.8275C7.06366 14.6252 7.9687 13.7658 7.9687 12.7839V8.59812C7.9687 8.53376 7.96365 8.46957 7.95456 8.40573H8.75877C8.74968 8.46957 8.74463 8.53379 8.74463 8.59812V12.7839C8.74463 13.7681 9.65445 14.6284 10.9079 14.8293C11.16 14.8697 11.4048 14.9176 11.5959 15.0602H10.4912C10.3316 15.0602 10.2021 15.1586 10.2021 15.2801C10.2021 15.4016 10.3316 15.5 10.4912 15.5H12.0756C12.1633 15.5 12.2462 15.4697 12.3011 15.4177C12.356 15.3656 12.3769 15.2975 12.3578 15.2324C12.2117 14.7324 11.6331 14.4961 11.0271 14.3989C10.0396 14.2406 9.32287 13.5614 9.32287 12.7839V8.59812C9.32287 8.30275 9.45259 8.00759 9.68619 7.7716L14.8696 2.53508ZM1.93091 2.99762C1.18505 2.99762 0.578236 2.53607 0.578236 1.96871C0.578236 1.40135 1.18505 0.939805 1.93091 0.939805C2.57751 0.939805 3.119 1.2868 3.25176 1.74881H2.35935C2.11305 1.74881 1.89174 1.85296 1.78177 2.02062C1.67185 2.18826 1.69557 2.38543 1.84371 2.53508L2.26907 2.9648C2.16092 2.98613 2.04768 2.99762 1.93091 2.99762V2.99762ZM8.89388 7.9659H7.81918C7.76164 7.8478 7.68784 7.73498 7.59906 7.62834C7.59875 7.62799 7.59848 7.62761 7.59818 7.62726C7.47265 7.47389 7.32229 7.33853 7.18028 7.19507C6.95019 6.9626 3.36893 3.34484 3.2565 3.23091C3.68056 3.23501 4.1038 3.26337 4.52386 3.3069C4.72163 3.32741 4.9188 3.35135 5.11538 3.37783C5.309 3.40391 5.49884 3.43191 5.68976 3.46177C5.84618 3.48623 5.99889 3.40921 6.03078 3.29023C6.06267 3.17123 5.96168 3.0551 5.80523 3.03084C4.82751 2.87984 3.82588 2.76585 2.82566 2.79591L2.30562 2.27056C2.28494 2.24967 2.29072 2.22989 2.29919 2.21697C2.30767 2.20405 2.325 2.18864 2.35935 2.18864H14.3539C14.3883 2.18864 14.4056 2.20405 14.4141 2.21697C14.4226 2.22989 14.4283 2.24967 14.4076 2.27056L13.6344 3.05176C13.3322 3.20141 13.0073 3.32261 12.6675 3.41164C11.8849 3.61678 11.0496 3.67083 10.2266 3.64045C9.17809 3.60175 8.14094 3.43262 7.1249 3.25408C6.9691 3.22672 6.81404 3.30046 6.77806 3.41876C6.74209 3.53709 6.83899 3.65519 6.9946 3.68258C8.02339 3.86343 9.06262 4.03159 10.1195 4.07715C11.0443 4.11702 11.9754 4.055 12.8559 3.82745C12.8606 3.82622 12.8654 3.82496 12.8701 3.8237L9.22423 7.50702C9.08792 7.64463 8.97253 7.8045 8.89388 7.9659Z" fill="black"/>
</svg>
