<svg width="100" height="100" viewBox="0 0 15 16" fill="none" xmlns="http://www.w3.org/2000/svg">
<path d="M13.6816 2.28711H1.31836C0.592324 2.28711 0 2.87879 0 3.60547V12.3945C0 13.1187 0.589688 13.7129 1.31836 13.7129H13.6816C14.4059 13.7129 15 13.1232 15 12.3945V3.60547C15 2.88125 14.4103 2.28711 13.6816 2.28711ZM13.4996 3.16602L7.52795 9.13769L1.50466 3.16602H13.4996ZM0.878906 12.2125V3.78327L5.11169 7.97976L0.878906 12.2125ZM1.50038 12.834L5.73583 8.59854L7.21992 10.0699C7.39172 10.2402 7.66895 10.2397 7.84005 10.0685L9.28711 8.62148L13.4996 12.834H1.50038ZM14.1211 12.2125L9.90858 8L14.1211 3.78746V12.2125Z" fill="black"/>
</svg>
