<svg width="100" height="100" viewBox="0 0 20 12" fill="none" xmlns="http://www.w3.org/2000/svg">
<g clip-path="url(#clip0)">
<path d="M19.8592 5.64543C19.821 5.59452 18.905 4.38482 17.2408 3.17453C15.0292 1.56605 12.5255 0.715881 10.0001 0.715881C7.47483 0.715881 4.971 1.56605 2.75942 3.17446C1.09512 4.38482 0.179095 5.59452 0.14098 5.64543C-0.0468306 5.8958 -0.0468306 6.2401 0.14098 6.49047C0.179095 6.54138 1.09512 7.75107 2.75942 8.96144C4.97107 10.5699 7.47483 11.42 10.0001 11.42C12.5255 11.42 15.0293 10.5699 17.2408 8.96137C18.905 7.75101 19.821 6.54131 19.8592 6.49047C20.047 6.2401 20.047 5.89573 19.8592 5.64543ZM13.9438 6.06792C13.9438 8.24245 12.1747 10.0116 10.0002 10.0116C7.82567 10.0116 6.05652 8.24245 6.05652 6.06792C6.05652 3.89338 7.8256 2.12429 10.0001 2.12429C12.1747 2.12429 13.9438 3.89338 13.9438 6.06792ZM1.6265 6.06785C2.22825 5.40368 3.5679 4.09627 5.50467 3.16914C4.96366 4.00516 4.64804 5.00011 4.64804 6.06792C4.64804 7.13956 4.96581 8.13781 5.51046 8.97572C4.86817 8.66824 4.23922 8.29269 3.62528 7.84953C2.68939 7.17397 2.00919 6.49074 1.6265 6.06785ZM16.3749 7.84953C15.761 8.29269 15.132 8.66811 14.4899 8.97572C15.0345 8.13788 15.3522 7.13949 15.3522 6.06792C15.3522 4.99634 15.0345 3.99802 14.4899 3.16012C15.132 3.46766 15.761 3.84314 16.3749 4.28631C17.3108 4.96186 17.991 5.64509 18.3736 6.06792C17.9907 6.49101 17.3106 7.17411 16.3749 7.84953Z" fill="black"/>
<path d="M10.0001 7.22986C10.6419 7.22986 11.1621 6.70964 11.1621 6.06791C11.1621 5.42618 10.6419 4.90596 10.0001 4.90596C9.35842 4.90596 8.8382 5.42618 8.8382 6.06791C8.8382 6.70964 9.35842 7.22986 10.0001 7.22986Z" fill="black"/>
</g>
<defs>
<clipPath id="clip0">
<rect width="20" height="11.1999" fill="black" transform="translate(0 0.400024)"/>
</clipPath>
</defs>
</svg>
