<svg width="100" height="100" viewBox="0 0 22 22" fill="none" xmlns="http://www.w3.org/2000/svg">
<path d="M11 20.718C10.8485 20.718 10.697 20.6648 10.5755 20.5584L10.5473 20.5338C9.61005 19.7137 8.72966 18.9635 7.87832 18.238C5.59363 16.2911 3.62063 14.6098 2.2492 12.9787C0.714699 11.1537 0 9.45113 0 7.62053C0 5.93882 0.570066 4.36582 1.6051 3.19131C2.69023 1.96004 4.19555 1.282 5.84375 1.282C8.16183 1.282 9.62943 2.66645 10.4524 3.8279C10.6659 4.12928 10.8475 4.43148 11 4.71585C11.1525 4.43148 11.3341 4.12928 11.5476 3.8279C12.3706 2.66649 13.8382 1.282 16.1562 1.282C17.8044 1.282 19.3098 1.96009 20.3949 3.19131C21.4299 4.36582 22 5.93882 22 7.62053C22 9.45113 21.2853 11.1538 19.7508 12.9787C18.3794 14.6098 16.4064 16.2911 14.1218 18.2379C13.2703 18.9635 12.39 19.7137 11.4527 20.5338L11.4245 20.5584C11.303 20.6648 11.1515 20.718 11 20.718ZM5.84375 2.57106C4.57097 2.57106 3.40914 3.09403 2.5722 4.04364C1.74475 4.98251 1.28906 6.25284 1.28906 7.62053C1.28906 10.9294 4.24295 13.4466 8.71423 17.2567C9.44827 17.8822 10.2036 18.5259 11 19.2182C11.7964 18.5259 12.5517 17.8822 13.2856 17.2568C17.757 13.4466 20.7109 10.9294 20.7109 7.62053C20.7109 6.25284 20.2553 4.98251 19.4278 4.0436C18.5909 3.09403 17.429 2.57106 16.1562 2.57106C14.389 2.57106 13.2466 3.6598 12.5995 4.57315C12.019 5.39234 11.7161 6.21808 11.6128 6.5351C11.5264 6.80043 11.279 6.98 11 6.98C10.721 6.98 10.4736 6.80043 10.3872 6.5351C10.2839 6.21812 9.981 5.39234 9.40053 4.57319C8.75342 3.6598 7.61101 2.57106 5.84375 2.57106Z" fill="#F41709"/>
</svg>
