<svg width="100" height="100" viewBox="0 0 15 16" fill="none" xmlns="http://www.w3.org/2000/svg">
<g clip-path="url(#clip0)">
<path d="M7.5 0.5C4.59223 0.5 2.22656 2.86566 2.22656 5.77344C2.22656 6.75588 2.4987 7.71465 3.01374 8.54645L7.19982 15.2923C7.28001 15.4215 7.42128 15.5 7.57321 15.5C7.57438 15.5 7.57553 15.5 7.5767 15.5C7.72995 15.4988 7.87151 15.4179 7.95023 15.2864L12.0296 8.4752C12.5162 7.66098 12.7734 6.72673 12.7734 5.77344C12.7734 2.86566 10.4078 0.5 7.5 0.5ZM11.2754 8.02396L7.56656 14.2164L3.76075 8.08338C3.33205 7.39104 3.09961 6.59229 3.09961 5.77344C3.09961 3.35029 5.07686 1.37305 7.5 1.37305C9.92314 1.37305 11.8975 3.35029 11.8975 5.77344C11.8975 6.568 11.6803 7.34633 11.2754 8.02396Z" fill="black"/>
<path d="M7.5 3.13672C6.04611 3.13672 4.86328 4.31955 4.86328 5.77344C4.86328 7.21804 6.02687 8.41016 7.5 8.41016C8.9913 8.41016 10.1367 7.20216 10.1367 5.77344C10.1367 4.31955 8.95389 3.13672 7.5 3.13672ZM7.5 7.53711C6.52567 7.53711 5.73633 6.74513 5.73633 5.77344C5.73633 4.80418 6.53074 4.00977 7.5 4.00977C8.46926 4.00977 9.26074 4.80418 9.26074 5.77344C9.26074 6.73095 8.48977 7.53711 7.5 7.53711Z" fill="black"/>
</g>
<defs>
<clipPath id="clip0">
<rect width="15" height="15" fill="white" transform="translate(0 0.5)"/>
</clipPath>
</defs>
</svg>
