<svg width="100" height="100" viewBox="0 0 15 14" fill="none" xmlns="http://www.w3.org/2000/svg">
<path d="M12.1607 6.82929C13.698 5.44725 13.8239 3.08065 12.4419 1.54332C11.1743 0.133344 9.05268 -0.106189 7.50267 0.985722C5.81298 -0.20676 3.47655 0.196311 2.28407 1.88597C1.18986 3.43638 1.42842 5.56022 2.83931 6.82926C1.08625 7.75336 -0.00789094 9.57523 5.05696e-05 11.5569V13.164C5.05696e-05 13.4599 0.239897 13.6998 0.535773 13.6998H14.4643C14.7601 13.6998 15 13.4599 15 13.164V11.5569C15.0079 9.57523 13.9138 7.75336 12.1607 6.82929ZM9.64283 1.3784C11.1201 1.37677 12.319 2.57299 12.3206 4.05023C12.3218 5.10379 11.7044 6.05987 10.7437 6.49229C10.7025 6.51103 10.6612 6.52817 10.6194 6.54588C10.4872 6.59921 10.3509 6.64164 10.2118 6.67285C10.185 6.67875 10.1582 6.68195 10.1309 6.68732C9.97543 6.7171 9.8177 6.73305 9.65943 6.735C9.58818 6.735 9.51639 6.72963 9.44514 6.72323C9.41836 6.72323 9.39156 6.72323 9.36478 6.71786C9.0603 6.68201 8.76412 6.59472 8.48889 6.45965C8.47872 6.45482 8.46692 6.45535 8.45675 6.45108C8.40317 6.42537 8.34962 6.40287 8.30194 6.37393C8.30624 6.36856 8.30891 6.36269 8.31318 6.35732C8.55883 6.04167 8.7525 5.68885 8.88691 5.31215L8.90352 5.26714C8.96463 5.08721 9.01209 4.90296 9.04549 4.71588C9.05032 4.68857 9.05406 4.66229 9.05836 4.63285C9.08934 4.44241 9.10563 4.2499 9.10711 4.05695C9.10557 3.86438 9.08928 3.67221 9.05836 3.48212C9.05406 3.45428 9.05032 3.42854 9.04549 3.39909C9.01209 3.21204 8.96463 3.02776 8.90352 2.84783L8.88691 2.80282C8.7525 2.42612 8.5588 2.0733 8.31318 1.75765C8.30888 1.75228 8.30621 1.74641 8.30194 1.74104C8.70893 1.50361 9.17164 1.37843 9.64283 1.3784ZM2.6786 4.05698C2.6748 2.58149 3.86782 1.38229 5.3433 1.3785C6.03494 1.37671 6.70033 1.64323 7.19948 2.12199C7.23056 2.15199 7.2611 2.18197 7.29108 2.21305C7.38308 2.30944 7.46792 2.4124 7.54502 2.52107C7.56859 2.55428 7.59003 2.58966 7.61197 2.62393C7.68683 2.73916 7.75256 2.86007 7.80856 2.98554C7.82196 3.01608 7.83213 3.04716 7.84391 3.07767C7.90037 3.21644 7.94482 3.35982 7.97678 3.50622C7.98054 3.5223 7.98161 3.53837 7.98481 3.55497C8.05268 3.88761 8.05268 4.23053 7.98481 4.56317C7.98161 4.57977 7.98051 4.59584 7.97678 4.61191C7.94485 4.75831 7.90041 4.9017 7.84391 5.04047C7.83213 5.07102 7.82193 5.10209 7.80856 5.1326C7.7525 5.25788 7.68677 5.3786 7.61197 5.49367C7.59 5.52795 7.56859 5.56333 7.54502 5.59654C7.46796 5.70524 7.38308 5.80816 7.29108 5.90456C7.26107 5.93564 7.23053 5.96564 7.19948 5.99562C6.98258 6.20232 6.7325 6.3711 6.45967 6.4949C6.41629 6.51471 6.37234 6.53294 6.32789 6.54848C6.19876 6.59974 6.06589 6.64092 5.93041 6.67168C5.89667 6.67919 5.86182 6.68346 5.82755 6.68936C5.68209 6.71645 5.53459 6.73129 5.38665 6.73384H5.32773C5.1798 6.73132 5.0323 6.71645 4.88684 6.68936C4.85256 6.68346 4.81772 6.67919 4.78398 6.67168C4.6485 6.64092 4.5156 6.59974 4.38649 6.54848C4.34201 6.53081 4.2981 6.5126 4.25472 6.4949C3.29628 6.06217 2.67982 5.10856 2.6786 4.05698ZM9.64283 12.6283H1.07146V11.5569C1.06362 9.7416 2.20738 8.12081 3.92036 7.51982C4.83994 7.90268 5.87432 7.90268 6.79393 7.51982C6.97279 7.58518 7.14709 7.6623 7.31572 7.75073C7.42715 7.80804 7.53001 7.87339 7.63714 7.93928C7.7068 7.98266 7.77749 8.02501 7.84447 8.07269C7.94787 8.14607 8.04536 8.2259 8.14126 8.30785C8.20287 8.36144 8.26393 8.41499 8.32178 8.46857C8.41017 8.55213 8.49319 8.64052 8.57302 8.73108C8.63033 8.79643 8.68605 8.86285 8.7391 8.93144C8.80929 9.02143 8.87624 9.11359 8.93839 9.20838C8.99197 9.28874 9.03965 9.3723 9.08677 9.45589C9.14035 9.54802 9.18963 9.64018 9.23461 9.73607C9.27962 9.83197 9.31927 9.93696 9.35781 10.0393C9.39156 10.1282 9.42747 10.2166 9.45531 10.3071C9.49282 10.4314 9.51906 10.56 9.5453 10.6885C9.56137 10.7646 9.58228 10.8391 9.59405 10.9162C9.62578 11.1283 9.64208 11.3425 9.6428 11.5569V12.6283H9.64283ZM13.9285 12.6283H10.7143V11.5569C10.7143 11.3893 10.7046 11.2232 10.6896 11.0587C10.6853 11.0105 10.6779 10.9628 10.6725 10.9146C10.658 10.7962 10.6414 10.6789 10.6189 10.5626C10.6093 10.513 10.5991 10.4632 10.5884 10.4132C10.5627 10.2939 10.5328 10.1757 10.4989 10.0585C10.4877 10.02 10.4775 9.98085 10.4657 9.94283C10.3157 9.4633 10.0983 9.00752 9.82018 8.5891L9.79927 8.55856C9.70715 8.42177 9.60874 8.28946 9.50409 8.16161L9.50035 8.15678C9.39322 8.02394 9.27695 7.8948 9.15482 7.77267C9.16179 7.77267 9.16929 7.77267 9.17679 7.77267C9.32796 7.79254 9.4802 7.80327 9.63269 7.80481H9.66216C9.80329 7.80359 9.9442 7.79445 10.0843 7.7775C10.1282 7.77213 10.1716 7.7641 10.2156 7.75713C10.3295 7.73964 10.442 7.71695 10.5531 7.68911C10.5847 7.68107 10.6168 7.67357 10.649 7.66447C10.7947 7.62482 10.9378 7.57614 11.0775 7.51876C12.7917 8.11914 13.9365 9.74065 13.9286 11.557V12.6283H13.9285Z" fill="black"/>
</svg>
