<svg width="100" height="100" viewBox="0 0 15 16" fill="none" xmlns="http://www.w3.org/2000/svg">
<g clip-path="url(#clip0)">
<path d="M9.28753 0.5C6.13768 0.5 3.57508 3.0626 3.57508 6.21244C3.57508 7.62954 4.09395 8.92761 4.95146 9.92709L4.35007 10.5285C3.86015 10.2951 3.25498 10.3807 2.84992 10.7857L0 13.6357L1.86428 15.5L4.71423 12.65C5.11932 12.245 5.20489 11.6398 4.9715 11.1499L5.57288 10.5485C6.57239 11.406 7.87043 11.9249 9.28753 11.9249C12.4374 11.9249 15 9.36229 15 6.21244C15 3.0626 12.4374 0.5 9.28753 0.5V0.5ZM4.09281 12.0286L1.86428 14.2571L1.24285 13.6357L3.47135 11.4072C3.64272 11.2359 3.92149 11.2359 4.09281 11.4072C4.26456 11.5789 4.26456 11.8569 4.09281 12.0286ZM9.28753 11.0461C6.62228 11.0461 4.45392 8.8777 4.45392 6.21244C4.45392 3.54719 6.62228 1.37884 9.28753 1.37884C11.9528 1.37884 14.1211 3.54719 14.1211 6.21244C14.1211 8.8777 11.9528 11.0461 9.28753 11.0461Z" fill="black"/>
<path d="M11.0452 4.01536C11.0452 3.04618 10.2567 2.25768 9.28752 2.25768C8.31834 2.25768 7.52985 3.04618 7.52985 4.01536C7.52985 4.98454 8.31834 5.77303 9.28752 5.77303C10.2567 5.77303 11.0452 4.98454 11.0452 4.01536ZM9.28752 4.89419C8.80293 4.89419 8.40868 4.49995 8.40868 4.01536C8.40868 3.53077 8.80293 3.13652 9.28752 3.13652C9.77211 3.13652 10.1664 3.53077 10.1664 4.01536C10.1664 4.49995 9.77211 4.89419 9.28752 4.89419Z" fill="black"/>
<path d="M9.28751 5.77303C7.59144 5.77303 6.21158 7.15289 6.21158 8.84896V9.28838H12.3634V8.84896C12.3634 7.15289 10.9836 5.77303 9.28751 5.77303ZM7.13456 8.40954C7.33875 7.40793 8.22649 6.65187 9.28751 6.65187C10.3485 6.65187 11.2363 7.40793 11.4405 8.40954H7.13456Z" fill="black"/>
</g>
<defs>
<clipPath id="clip0">
<rect width="15" height="15" fill="white" transform="translate(0 0.5)"/>
</clipPath>
</defs>
</svg>
