<svg width="100" height="100" viewBox="0 0 25 25" fill="none" xmlns="http://www.w3.org/2000/svg">
<g clip-path="url(#clip0)">
<path d="M21.3392 16.1611C19.9778 14.7997 18.3573 13.7918 16.5892 13.1817C18.4828 11.8775 19.7269 9.69473 19.7269 7.22656C19.7269 3.24185 16.4851 0 12.5004 0C8.51565 0 5.2738 3.24185 5.2738 7.22656C5.2738 9.69473 6.5179 11.8775 8.4116 13.1817C6.64353 13.7918 5.02302 14.7997 3.66155 16.1611C1.30061 18.5221 0.000366211 21.6611 0.000366211 25H1.95349C1.95349 19.1844 6.68479 14.4531 12.5004 14.4531C18.3159 14.4531 23.0472 19.1844 23.0472 25H25.0004C25.0004 21.6611 23.7001 18.5221 21.3392 16.1611ZM12.5004 12.5C9.5926 12.5 7.22693 10.1344 7.22693 7.22656C7.22693 4.31875 9.5926 1.95312 12.5004 1.95312C15.4081 1.95312 17.7738 4.31875 17.7738 7.22656C17.7738 10.1344 15.4081 12.5 12.5004 12.5Z" fill="black"/>
</g>
<defs>
<clipPath id="clip0">
<rect width="25" height="25" fill="white" transform="translate(0.000366211)"/>
</clipPath>
</defs>
</svg>
